<svg class="menu_icon"  xmlns="http://www.w3.org/2000/svg" viewBox="-0.5 -0.5 18 18" id="Coding-Apps-Website-Home--Streamline-Ultimate.svg" height="18" width="18"><desc>Coding Apps Website Home Streamline Icon: https://streamlinehq.com</desc><path d="M14.875 5.135416666666667 8.875416666666666 0.5241666666666667a0.7083333333333334 0.7083333333333334 0 0 0 -0.7508333333333335 0L2.125 5.135416666666667a0.7083333333333334 0.7083333333333334 0 0 0 -0.33291666666666664 0.6020833333333333v10.129166666666668a0.7083333333333334 0.7083333333333334 0 0 0 0.7083333333333334 0.7083333333333334h12.041666666666668a0.7083333333333334 0.7083333333333334 0 0 0 0.7083333333333334 -0.7083333333333334V5.7375a0.7083333333333334 0.7083333333333334 0 0 0 -0.37541666666666673 -0.6020833333333333ZM7.4375 14.102916666666667a0.7083333333333334 0.7083333333333334 0 0 1 -0.7083333333333334 0.7083333333333334h-2.125a0.7083333333333334 0.7083333333333334 0 0 1 -0.7083333333333334 -0.7083333333333334v-2.125a0.7083333333333334 0.7083333333333334 0 0 1 0.7083333333333334 -0.7083333333333334h2.125a0.7083333333333334 0.7083333333333334 0 0 1 0.7083333333333334 0.7083333333333334Zm0 -5.666666666666667a0.7083333333333334 0.7083333333333334 0 0 1 -0.7083333333333334 0.7083333333333334h-2.125a0.7083333333333334 0.7083333333333334 0 0 1 -0.7083333333333334 -0.7083333333333334v-2.125a0.7083333333333334 0.7083333333333334 0 0 1 0.7083333333333334 -0.7083333333333334h2.125a0.7083333333333334 0.7083333333333334 0 0 1 0.7083333333333334 0.7083333333333334Zm5.666666666666667 5.666666666666667a0.7083333333333334 0.7083333333333334 0 0 1 -0.7083333333333334 0.7083333333333334h-2.125a0.7083333333333334 0.7083333333333334 0 0 1 -0.7083333333333334 -0.7083333333333334v-2.125a0.7083333333333334 0.7083333333333334 0 0 1 0.7083333333333334 -0.7083333333333334h2.125a0.7083333333333334 0.7083333333333334 0 0 1 0.7083333333333334 0.7083333333333334Zm0 -5.666666666666667a0.7083333333333334 0.7083333333333334 0 0 1 -0.7083333333333334 0.7083333333333334h-2.125a0.7083333333333334 0.7083333333333334 0 0 1 -0.7083333333333334 -0.7083333333333334v-2.125a0.7083333333333334 0.7083333333333334 0 0 1 0.7083333333333334 -0.7083333333333334h2.125a0.7083333333333334 0.7083333333333334 0 0 1 0.7083333333333334 0.7083333333333334Z" fill="currentColor" stroke-width="1"></path></svg>