<svg class="menu_icon"  xmlns="http://www.w3.org/2000/svg" viewBox="-0.5 -0.5 18 18" id="Eco-House--Streamline-Ultimate.svg" height="18" width="18"><desc>Eco House Streamline Icon: https://streamlinehq.com</desc><path d="M16.801666666666666 8.358333333333334 9.010000000000002 0.2125a0.7083333333333334 0.7083333333333334 0 0 0 -1.02 0l-7.791666666666667 8.145833333333334a0.7083333333333334 0.7083333333333334 0 0 0 -0.1416666666666667 0.7720833333333335 0.7083333333333334 0.7083333333333334 0 0 0 0.6516666666666667 0.425h1.0625A0.3541666666666667 0.3541666666666667 0 0 1 2.125 9.916666666666668v6.020833333333334A1.0625 1.0625 0 0 0 3.1875 17h10.625a1.0625 1.0625 0 0 0 1.0625 -1.0625V9.916666666666668a0.3541666666666667 0.3541666666666667 0 0 1 0.3541666666666667 -0.3541666666666667H16.291666666666668a0.7083333333333334 0.7083333333333334 0 0 0 0.6516666666666667 -0.425 0.7083333333333334 0.7083333333333334 0 0 0 -0.1416666666666667 -0.7791666666666668Zm-6.275833333333333 4.61125a3.8179166666666666 3.8179166666666666 0 0 1 -1.9054166666666668 0.6304166666666667 1.6716666666666666 1.6716666666666666 0 0 1 -1.2395833333333335 -0.49583333333333335 0.33291666666666664 0.33291666666666664 0 0 1 -0.09916666666666668 -0.26208333333333333 0.32583333333333336 0.32583333333333336 0 0 1 0.12041666666666669 -0.255A16.12166666666667 16.12166666666667 0 0 1 9.916666666666668 10.759583333333333a0.53125 0.53125 0 0 0 -0.5454166666666667 -0.9137500000000001 17.255 17.255 0 0 0 -4.845 4.25 0.5241666666666667 0.5241666666666667 0 0 1 -0.7083333333333334 0.1416666666666667 0.53125 0.53125 0 0 1 -0.1416666666666667 -0.7083333333333334 14.705000000000002 14.705000000000002 0 0 1 2.3020833333333335 -2.48625 0.3541666666666667 0.3541666666666667 0 0 0 0.07083333333333335 -0.4391666666666667 2.0258333333333334 2.0258333333333334 0 0 1 -0.26916666666666667 -1.16875 2.6775 2.6775 0 0 1 1.5158333333333336 -1.926666666666667 4.69625 4.69625 0 0 1 2.7625 -0.45333333333333337 6.375 6.375 0 0 0 2.6350000000000002 -0.2975 0.33291666666666664 0.33291666666666664 0 0 1 0.3045833333333333 0 0.36125 0.36125 0 0 1 0.17708333333333334 0.24791666666666667c0.2833333333333334 2.075416666666667 -1.2325000000000002 5.114166666666667 -2.649166666666667 5.964166666666667Z" fill="currentColor" stroke-width="1"></path></svg>