<svg class="menu_icon"  xmlns="http://www.w3.org/2000/svg" viewBox="-0.5 -0.5 18 18" id="Ecology-Leaf-Settings--Streamline-Ultimate.svg" height="18" width="18"><desc>Ecology Leaf Settings Streamline Icon: https://streamlinehq.com</desc><path d="m15.880833333333335 6.913333333333333 -0.8925000000000001 -0.31875000000000003a0.9704166666666668 0.9704166666666668 0 0 1 -0.5595833333333334 -1.3316666666666666L14.875 4.398750000000001a1.6787500000000002 1.6787500000000002 0 0 0 -2.2383333333333337 -2.2383333333333337l-0.8641666666666666 0.41083333333333333a0.9774999999999999 0.9774999999999999 0 0 1 -1.3316666666666666 -0.5595833333333334l-0.31875000000000003 -0.8925000000000001a1.6858333333333333 1.6858333333333333 0 0 0 -3.173333333333334 0l-0.3541666666666667 0.8925000000000001a0.9774999999999999 0.9774999999999999 0 0 1 -1.3316666666666666 0.5595833333333334l-0.8641666666666666 -0.41083333333333333a1.6787500000000002 1.6787500000000002 0 0 0 -2.2383333333333337 2.2383333333333337l0.41083333333333333 0.8641666666666666a0.9704166666666668 0.9704166666666668 0 0 1 -0.5595833333333334 1.3316666666666666l-0.8925000000000001 0.31875000000000003a1.6858333333333333 1.6858333333333333 0 0 0 0 3.173333333333334l0.8925000000000001 0.31875000000000003a0.9704166666666668 0.9704166666666668 0 0 1 0.5595833333333334 1.3316666666666666l-0.41083333333333333 0.8641666666666666A1.6787500000000002 1.6787500000000002 0 0 0 4.398750000000001 14.875l0.8641666666666666 -0.41083333333333333a0.9774999999999999 0.9774999999999999 0 0 1 1.3316666666666666 0.5595833333333334l0.31875000000000003 0.8925000000000001a1.6858333333333333 1.6858333333333333 0 0 0 3.173333333333334 0l0.31875000000000003 -0.8925000000000001a0.9774999999999999 0.9774999999999999 0 0 1 1.3316666666666666 -0.5595833333333334l0.8641666666666666 0.41083333333333333A1.6787500000000002 1.6787500000000002 0 0 0 14.875 12.60125l-0.41083333333333333 -0.8641666666666666a0.9704166666666668 0.9704166666666668 0 0 1 0.5595833333333334 -1.3316666666666666l0.8925000000000001 -0.31875000000000003a1.6858333333333333 1.6858333333333333 0 0 0 0 -3.173333333333334Zm-5.907500000000001 3.541666666666667a2.3020833333333335 2.3020833333333335 0 0 1 -2.0612500000000002 0.5737500000000001 1.36 1.36 0 0 1 -0.48166666666666674 -0.26208333333333333 0.34708333333333335 0.34708333333333335 0 0 1 -0.06375 -0.48166666666666674 4.8308333333333335 4.8308333333333335 0 0 1 2.0116666666666667 -1.7495833333333335 0.3541666666666667 0.3541666666666667 0 0 0 -0.23375 -0.6729166666666667c-1.4945833333333334 0.53125 -2.8333333333333335 2.5145833333333334 -3.50625 3.945416666666667A0.3541666666666667 0.3541666666666667 0 0 1 4.958333333333334 11.545833333333334a12.13375 12.13375 0 0 1 1.2466666666666668 -2.125 0.3541666666666667 0.3541666666666667 0 0 0 0 -0.3966666666666667 1.5370833333333334 1.5370833333333334 0 0 1 -0.24083333333333337 -1.0129166666666667 1.9479166666666667 1.9479166666666667 0 0 1 1.1475000000000002 -1.4166666666666667 5.036250000000001 5.036250000000001 0 0 1 1.6645833333333335 -0.4320833333333333A4.625416666666667 4.625416666666667 0 0 0 10.695833333333333 5.666666666666667a0.3541666666666667 0.3541666666666667 0 0 1 0.3045833333333333 0 0.34708333333333335 0.34708333333333335 0 0 1 0.2125 0.21958333333333335 5.170833333333333 5.170833333333333 0 0 1 -1.2395833333333335 4.590000000000001Z" fill="currentColor" stroke-width="1"></path></svg>