<svg class="menu_icon"  xmlns="http://www.w3.org/2000/svg" viewBox="-0.5 -0.5 18 18" id="Analytics-Graph-Lines--Streamline-Ultimate.svg" height="18" width="18"><desc>Analytics Graph Lines Streamline Icon: https://streamlinehq.com</desc><g><path d="m16.75916666666667 6.8566666666666665 -4.327916666666667 1.7141666666666666a10.228333333333333 10.228333333333333 0 0 1 -3.1591666666666667 0.595h-1.926666666666667a6.580416666666666 6.580416666666666 0 0 0 -2.6279166666666667 0.6658333333333333L0.09208333333333334 12.317916666666667a0.17708333333333334 0.17708333333333334 0 0 0 -0.09916666666666668 0.15583333333333335v1.9975a0.17708333333333334 0.17708333333333334 0 0 0 0.09916666666666668 0.15583333333333335 0.17708333333333334 0.17708333333333334 0 0 0 0.17708333333333334 0L4.25 11.985000000000001a5.7162500000000005 5.7162500000000005 0 0 1 3.1379166666666665 -0.8145833333333333l1.93375 0.1416666666666667a11.87875 11.87875 0 0 0 2.875833333333333 -0.2125l4.675 -1.0554166666666667a0.17708333333333334 0.17708333333333334 0 0 0 0.1416666666666667 -0.17v-2.8333333333333335a0.18416666666666667 0.18416666666666667 0 0 0 -0.24791666666666667 -0.16291666666666668Z" fill="currentColor" stroke-width="1"></path><path d="M16.532500000000002 0.3966666666666667a0.7083333333333334 0.7083333333333334 0 0 0 -0.7791666666666668 0.2125l-3.541666666666667 4.25a1.4166666666666667 1.4166666666666667 0 0 1 -1.4166666666666667 0.40375l-2.4720833333333334 -0.8783333333333334a4.072916666666667 4.072916666666667 0 0 0 -3.0600000000000005 0.29041666666666666L1.6787500000000002 6.743333333333333a0.16291666666666668 0.16291666666666668 0 0 1 -0.17708333333333334 0A0.17708333333333334 0.17708333333333334 0 0 1 1.4166666666666667 6.587500000000001V0.7083333333333334a0.7083333333333334 0.7083333333333334 0 0 0 -1.4166666666666667 0v10.1575a0.18416666666666667 0.18416666666666667 0 0 0 0.09208333333333334 0.15583333333333335 0.18416666666666667 0.18416666666666667 0 0 0 0.17 0l3.9595833333333332 -2.125a7.685416666666667 7.685416666666667 0 0 1 3.1308333333333334 -0.7862500000000001h1.926666666666667a9.208333333333334 9.208333333333334 0 0 0 2.7625 -0.53125L16.89375 5.666666666666667a0.17708333333333334 0.17708333333333334 0 0 0 0.10625 -0.17V1.0625a0.7083333333333334 0.7083333333333334 0 0 0 -0.4675 -0.6658333333333333Z" fill="currentColor" stroke-width="1"></path><path d="m16.7875 11.15625 -4.363333333333333 0.9774999999999999a13.026250000000001 13.026250000000001 0 0 1 -3.1875 0.24083333333333337l-1.93375 -0.1416666666666667a4.689166666666667 4.689166666666667 0 0 0 -2.4720833333333334 0.6375000000000001L0.09916666666666668 16.001250000000002a0.17 0.17 0 0 0 -0.07083333333333335 0.19125000000000003A1.0554166666666667 1.0554166666666667 0 0 0 1.04125 17h14.9175A1.0554166666666667 1.0554166666666667 0 0 0 17 15.9375V11.333333333333334a0.18416666666666667 0.18416666666666667 0 0 0 -0.07083333333333335 -0.1416666666666667 0.17708333333333334 0.17708333333333334 0 0 0 -0.1416666666666667 -0.03541666666666667Z" fill="currentColor" stroke-width="1"></path></g></svg>