<svg class="menu_icon"  xmlns="http://www.w3.org/2000/svg" fill="none" viewBox="-0.5 -0.5 18 18" id="Chess-Knight-2--Streamline-Ultimate.svg" height="18" width="18"><desc>Chess Knight 2 Streamline Icon: https://streamlinehq.com</desc><path fill="currentColor" fill-rule="evenodd" d="M8.788291666666668 0.35598283333333336c0.07189583333333334 -0.06699204166666667 0.16844166666666668 -0.10108979166666668 0.266475 -0.09413891666666667 0.50065 0.035500250000000004 1.0906208333333334 0.26450300000000004 1.6302291666666666 0.5798119166666666 0.5444958333333334 0.3181479166666667 1.0763833333333335 0.7467179166666666 1.453854166666667 1.2200616666666666 1.4858 1.8632779166666669 1.4429458333333336 4.1827154166666665 0.5773625000000001 5.822386666666667 -0.3710958333333334 0.7030916666666668 -0.667675 1.3821708333333333 -0.6362958333333334 2.072795833333333l0.10773750000000001 2.371004166666667H5.483194166666667c0.29665 -1.5419708333333333 0.8662775 -2.7289958333333333 1.36380375 -3.68305l-0.6209108333333334 0.2621541666666667c-0.790075 0.33369583333333336 -1.7056595833333332 0.05319583333333334 -2.1732941666666665 -0.6657625l-0.6795891666666667 -1.0447208333333335c-0.2793241666666667 -0.4294554166666667 -0.21246458333333335 -0.99705 0.15899958333333333 -1.3498141666666668l0.23680291666666667 0.24935458333333335 -0.23680291666666667 -0.24935458333333335 2.7009670833333335 -2.5649670833333333c0.68329375 -0.6817495833333334 1.5512004166666666 -1.0669341666666667 2.4423545833333336 -1.1553625l0 -1.5112645833333334c0 -0.09828054166666668 0.040870833333333335 -0.19214179166666664 0.11276666666666668 -0.25913383333333334ZM4.71767 13.390404166666666c-0.45843333333333336 0.46395833333333336 -0.7156433333333334 1.0899833333333333 -0.7156433333333334 1.742429166666667l0 1.25205c0 0.19557083333333336 0.15856041666666668 0.3541666666666667 0.3541666666666667 0.3541666666666667l9.088681666666668 0c0.09392500000000001 0 0.184025 -0.03732916666666666 0.25046666666666667 -0.10377083333333333 0.06637083333333334 -0.06637083333333334 0.1037 -0.15647083333333336 0.1037 -0.2503958333333333V15.132833333333334c0 -0.6524458333333334 -0.25719583333333335 -1.2784708333333334 -0.7156291666666666 -1.742429166666667H4.71767Z" clip-rule="evenodd" stroke-width="1"></path></svg>