<svg width="129" height="33" viewBox="0 0 129 33" fill="none" xmlns="http://www.w3.org/2000/svg">
<g clip-path="url(#clip0_138_33090)">
<path d="M46.5761 27.4756C44.812 27.4756 43.261 27.1462 41.9229 26.4873C40.605 25.8285 39.581 24.8799 38.851 23.6421C38.1415 22.4041 37.7764 20.9565 37.7562 19.2993H41.1016C41.122 20.9366 41.6188 22.2144 42.5918 23.1328C43.5651 24.0514 44.9135 24.5106 46.6369 24.5106C48.1777 24.5106 49.4248 24.1611 50.3777 23.4624C51.3509 22.7436 51.8375 21.8151 51.8375 20.6769C51.8375 19.6986 51.4725 18.9398 50.7427 18.4008C50.033 17.8416 49.0396 17.5622 47.7621 17.5622H44.9337C43.5753 17.5622 42.3791 17.3126 41.3449 16.8133C40.3109 16.3142 39.5 15.6155 38.912 14.7169C38.3442 13.7984 38.0603 12.7502 38.0603 11.5721C38.0603 10.2942 38.3948 9.16611 39.064 8.18774C39.7533 7.20937 40.7165 6.46061 41.9533 5.94148C43.19 5.40236 44.6195 5.13281 46.2415 5.13281C48.8571 5.13281 50.9251 5.81169 52.4457 7.16943C53.9665 8.52718 54.7775 10.434 54.8788 12.8899H51.5334C51.4523 11.3125 50.9555 10.1245 50.0432 9.32584C49.151 8.50721 47.8636 8.09789 46.1807 8.09789C44.7006 8.09789 43.5347 8.39739 42.6832 8.9964C41.8315 9.5954 41.4058 10.4041 41.4058 11.4224C41.4058 12.3408 41.7302 13.0696 42.3791 13.6087C43.0481 14.1279 43.9403 14.3874 45.0553 14.3874H47.8838C50.1546 14.3874 51.9389 14.9365 53.2366 16.0347C54.5341 17.1329 55.1831 18.6303 55.1831 20.5273C55.1831 21.9049 54.8282 23.1229 54.1185 24.1812C53.4089 25.2194 52.4053 26.0281 51.1076 26.6071C49.8099 27.1862 48.2995 27.4756 46.5761 27.4756Z" fill="black"/>
<path d="M64.452 27.206C63.0327 27.206 61.7452 26.8866 60.5894 26.2476C59.4337 25.5888 58.5214 24.7003 57.8523 23.582C57.2035 22.444 56.879 21.1761 56.879 19.7784C56.879 18.3808 57.2035 17.1129 57.8523 15.9747C58.5214 14.8366 59.4337 13.948 60.5894 13.3091C61.7452 12.6502 63.0327 12.3208 64.452 12.3208C65.8712 12.3208 67.1587 12.6502 68.3144 13.3091C69.4903 13.948 70.4028 14.8366 71.0515 15.9747C71.7207 17.1129 72.0552 18.3808 72.0552 19.7784C72.0552 21.1761 71.7207 22.444 71.0515 23.582C70.4028 24.7003 69.5005 25.5888 68.3447 26.2476C67.1891 26.8866 65.8915 27.206 64.452 27.206ZM64.452 24.1512C65.6481 24.1512 66.6417 23.7418 67.4324 22.9232C68.2232 22.0845 68.6186 21.0363 68.6186 19.7784C68.6186 18.5005 68.2232 17.4523 67.4324 16.6337C66.6417 15.795 65.6481 15.3758 64.452 15.3758C63.2556 15.3758 62.2622 15.795 61.4715 16.6337C60.701 17.4523 60.3157 18.5005 60.3157 19.7784C60.3157 21.0562 60.701 22.1046 61.4715 22.9232C62.2622 23.7418 63.2556 24.1512 64.452 24.1512Z" fill="black"/>
<path d="M80.4744 27.2063C78.528 27.2063 76.9668 26.6373 75.7908 25.4992C74.6148 24.3611 74.0269 22.8336 74.0269 20.9168V12.6206H77.4636V20.6772C77.4636 21.7954 77.717 22.644 78.2239 23.223C78.7511 23.802 79.5012 24.0915 80.4744 24.0915C81.4071 24.0915 82.1168 23.802 82.6034 23.223C83.1103 22.644 83.3637 21.8053 83.3637 20.7071V12.6206H86.8004V20.9467C86.8004 22.1648 86.5267 23.2529 85.9792 24.2113C85.4521 25.1497 84.712 25.8886 83.759 26.4276C82.8062 26.9468 81.7112 27.2063 80.4744 27.2063Z" fill="black"/>
<path d="M89.2335 18.1611C89.2335 16.384 89.7404 14.9665 90.7542 13.9081C91.7882 12.8499 93.1771 12.3208 94.9208 12.3208H97.7796V15.6154H95.529C94.5355 15.6154 93.8056 15.8649 93.3392 16.3641C92.8932 16.8433 92.6702 17.622 92.6702 18.7002V26.9065H89.2335V18.1611Z" fill="black"/>
<path d="M106.388 24.1512C107.199 24.1512 107.899 23.9515 108.487 23.5521C109.095 23.1328 109.561 22.5338 109.886 21.7551L113.018 22.9532C112.511 24.251 111.66 25.2892 110.464 26.068C109.267 26.8266 107.899 27.206 106.358 27.206C104.918 27.206 103.621 26.8866 102.465 26.2476C101.33 25.6087 100.437 24.7302 99.7887 23.612C99.1601 22.4739 98.8458 21.196 98.8458 19.7784C98.8458 18.3607 99.1703 17.0829 99.8191 15.9448C100.468 14.8066 101.36 13.9181 102.495 13.2792C103.631 12.6403 104.918 12.3208 106.358 12.3208C107.96 12.3208 109.369 12.7401 110.585 13.5787C111.822 14.4174 112.674 15.5254 113.14 16.9032L110.129 18.4007C109.906 17.5021 109.44 16.7833 108.73 16.2443C108.02 15.6851 107.24 15.4057 106.388 15.4057C105.192 15.4057 104.209 15.815 103.438 16.6337C102.668 17.4523 102.283 18.5005 102.283 19.7784C102.283 21.0562 102.668 22.1046 103.438 22.9232C104.209 23.7418 105.192 24.1512 106.388 24.1512Z" fill="black"/>
<path d="M128.914 19.7784C128.914 20.2576 128.904 20.6769 128.883 21.0363H117.965C118.188 22.0347 118.644 22.8134 119.334 23.3724C120.023 23.9315 120.864 24.211 121.858 24.211C122.709 24.211 123.409 24.0713 123.956 23.7917C124.504 23.4922 124.93 23.043 125.234 22.444L128.153 23.582C127.586 24.7003 126.744 25.5888 125.629 26.2476C124.514 26.8866 123.267 27.206 121.888 27.206C120.449 27.206 119.171 26.8965 118.056 26.2775C116.941 25.6386 116.069 24.7601 115.441 23.642C114.812 22.5039 114.498 21.2161 114.498 19.7784C114.498 18.3408 114.812 17.0629 115.441 15.9448C116.069 14.8066 116.941 13.9181 118.056 13.2792C119.171 12.6403 120.439 12.3208 121.858 12.3208C123.176 12.3208 124.372 12.6502 125.447 13.3091C126.521 13.9681 127.363 14.8665 127.971 16.0047C128.599 17.1428 128.914 18.4007 128.914 19.7784ZM125.477 18.4007C125.355 17.5222 124.95 16.7934 124.26 16.2143C123.592 15.6154 122.791 15.3158 121.858 15.3158C120.885 15.3158 120.043 15.5953 119.334 16.1545C118.644 16.6935 118.188 17.4423 117.965 18.4007H125.477Z" fill="black"/>
<path d="M23.7652 6.06453C21.4783 5.14197 18.8606 4.68068 15.9123 4.68068C12.9641 4.68068 10.3051 5.12839 7.93552 6.02383C9.56119 2.00794 12.2201 0 15.9123 0C19.6598 0 22.2772 2.02151 23.7652 6.06453ZM7.93552 6.02383C6.88847 8.683 6.36495 12.1155 6.36495 16.3214C6.36495 20.5814 6.97113 24.0818 8.1835 26.8223C5.56589 26.0083 3.54068 24.7194 2.10788 22.9557C0.702623 21.192 0 18.9805 0 16.3214C0 13.9877 0.688847 11.9391 2.06654 10.1754C3.47178 8.38451 5.42811 7.00067 7.93552 6.02383ZM31.5354 16.3214C31.5354 18.9805 30.8466 21.192 29.4689 22.9557C28.0911 24.6922 26.121 25.9811 23.5585 26.8223C24.6883 24.0276 25.2531 20.5272 25.2531 16.3214C25.2531 12.0612 24.7571 8.6423 23.7652 6.06453C26.19 7.01423 28.0911 8.38451 29.4689 10.1754C30.8466 11.9663 31.5354 14.0149 31.5354 16.3214ZM8.1835 26.8223C10.3327 27.5278 12.909 27.8806 15.9123 27.8806C18.778 27.8806 21.3267 27.5278 23.5585 26.8223C22.8146 28.6674 21.7951 30.0921 20.5001 31.0961C19.2326 32.1272 17.7034 32.6426 15.9123 32.6426C14.1213 32.6426 12.5783 32.1272 11.2833 31.0961C10.0158 30.0921 8.98256 28.6674 8.1835 26.8223Z" fill="black"/>
</g>
<defs>
<clipPath id="clip0_138_33090">
<rect width="128.914" height="32.74" fill="white"/>
</clipPath>
</defs>
</svg>
