<?xml version="1.0" encoding="utf-8"?>
<!-- Generator: Adobe Illustrator 25.4.1, SVG Export Plug-In . SVG Version: 6.00 Build 0)  -->
<svg version="1.1" id="Layer_1" xmlns="http://www.w3.org/2000/svg" xmlns:xlink="http://www.w3.org/1999/xlink" x="0px" y="0px"
	 viewBox="0 0 950 245" style="enable-background:new 0 0 950 245;" xml:space="preserve">
<style type="text/css">
	.st0{fill:#FFFFFF;}
</style>
<g>
	<path class="st0" d="M343.2,205.6c-13,0-24.4-2.5-34.3-7.4c-9.7-4.9-17.3-12-22.6-21.3c-5.2-9.3-7.9-20.1-8.1-32.5h24.7
		c0.1,12.3,3.8,21.8,11,28.7c7.2,6.9,17.1,10.3,29.8,10.3c11.4,0,20.5-2.6,27.6-7.8c7.2-5.4,10.8-12.3,10.8-20.8
		c0-7.3-2.7-13-8.1-17c-5.2-4.2-12.6-6.3-22-6.3h-20.8c-10,0-18.8-1.9-26.4-5.6c-7.6-3.7-13.6-9-17.9-15.7
		c-4.2-6.9-6.3-14.7-6.3-23.5c0-9.6,2.5-18,7.4-25.3c5.1-7.3,12.2-12.9,21.3-16.8c9.1-4,19.6-6.1,31.6-6.1
		c19.3,0,34.5,5.1,45.7,15.2c11.2,10.2,17.2,24.4,17.9,42.8h-24.7c-0.6-11.8-4.3-20.7-11-26.7c-6.6-6.1-16.1-9.2-28.5-9.2
		c-10.9,0-19.5,2.2-25.8,6.7c-6.3,4.5-9.4,10.5-9.4,18.2c0,6.9,2.4,12.3,7.2,16.4c4.9,3.9,11.5,5.8,19.7,5.8h20.8
		c16.7,0,29.9,4.1,39.4,12.3c9.6,8.2,14.3,19.4,14.3,33.6c0,10.3-2.6,19.4-7.8,27.3c-5.2,7.8-12.6,13.8-22.2,18.2
		C367.1,203.4,355.9,205.6,343.2,205.6z"/>
	<path class="st0" d="M475,203.6c-10.5,0-19.9-2.4-28.5-7.2c-8.5-4.9-15.2-11.6-20.2-19.9c-4.8-8.5-7.2-18-7.2-28.5
		s2.4-19.9,7.2-28.5c4.9-8.5,11.7-15.2,20.2-19.9c8.5-4.9,18-7.4,28.5-7.4c10.5,0,19.9,2.5,28.5,7.4c8.7,4.8,15.4,11.4,20.2,19.9
		c4.9,8.5,7.4,18,7.4,28.5s-2.5,19.9-7.4,28.5c-4.8,8.4-11.4,15-19.9,19.9C495.1,201.2,485.6,203.6,475,203.6z M475,180.7
		c8.8,0,16.1-3.1,22-9.2c5.8-6.3,8.7-14.1,8.7-23.5c0-9.6-2.9-17.4-8.7-23.5c-5.8-6.3-13.1-9.4-22-9.4c-8.8,0-16.1,3.1-22,9.4
		c-5.7,6.1-8.5,14-8.5,23.5c0,9.6,2.8,17.4,8.5,23.5C458.8,177.7,466.1,180.7,475,180.7z"/>
	<path class="st0" d="M593,203.6c-14.3,0-25.8-4.3-34.5-12.8c-8.7-8.5-13-19.9-13-34.3V94.4h25.3v60.3c0,8.4,1.9,14.7,5.6,19.1
		c3.9,4.3,9.4,6.5,16.6,6.5c6.9,0,12.1-2.2,15.7-6.5c3.7-4.3,5.6-10.6,5.6-18.8V94.4h25.3v62.3c0,9.1-2,17.3-6.1,24.4
		c-3.9,7-9.3,12.6-16.4,16.6C610.2,201.6,602.2,203.6,593,203.6z"/>
	<path class="st0" d="M657.6,135.9c0-13.3,3.7-23.9,11.2-31.8c7.6-7.9,17.9-11.9,30.7-11.9h21.1v24.7H704c-7.3,0-12.7,1.9-16.1,5.6
		c-3.3,3.6-4.9,9.4-4.9,17.5v61.4h-25.3V135.9z"/>
	<path class="st0" d="M784,180.7c6,0,11.1-1.5,15.5-4.5c4.5-3.1,7.9-7.6,10.3-13.4l23.1,9c-3.7,9.7-10,17.5-18.8,23.3
		c-8.8,5.7-18.9,8.5-30.3,8.5c-10.6,0-20.2-2.4-28.7-7.2c-8.4-4.8-14.9-11.4-19.7-19.7c-4.6-8.5-6.9-18.1-6.9-28.7
		c0-10.6,2.4-20.2,7.2-28.7s11.4-15.2,19.7-19.9c8.4-4.8,17.9-7.2,28.5-7.2c11.8,0,22.2,3.1,31.2,9.4c9.1,6.3,15.4,14.6,18.8,24.9
		l-22.2,11.2c-1.6-6.7-5.1-12.1-10.3-16.1c-5.2-4.2-11-6.3-17.3-6.3c-8.8,0-16.1,3.1-21.7,9.2c-5.7,6.1-8.5,14-8.5,23.5
		c0,9.6,2.8,17.4,8.5,23.5C767.9,177.7,775.2,180.7,784,180.7z"/>
	<path class="st0" d="M950,148c0,3.6-0.1,6.7-0.2,9.4h-80.5c1.6,7.5,5,13.3,10.1,17.5c5.1,4.2,11.3,6.3,18.6,6.3
		c6.3,0,11.4-1,15.5-3.1c4-2.2,7.2-5.6,9.4-10.1l21.5,8.5c-4.2,8.4-10.4,15-18.6,19.9c-8.2,4.8-17.4,7.2-27.6,7.2
		c-10.6,0-20-2.3-28.2-6.9c-8.2-4.8-14.6-11.4-19.3-19.7c-4.6-8.5-6.9-18.2-6.9-28.9c0-10.8,2.3-20.3,6.9-28.7
		c4.6-8.5,11.1-15.2,19.3-19.9c8.2-4.8,17.6-7.2,28-7.2c9.7,0,18.5,2.5,26.4,7.4c7.9,4.9,14.1,11.7,18.6,20.2
		C947.7,128.3,950,137.7,950,148z M924.7,137.7c-0.9-6.6-3.9-12-9-16.4c-4.9-4.5-10.8-6.7-17.7-6.7c-7.2,0-13.4,2.1-18.6,6.3
		c-5.1,4-8.4,9.6-10.1,16.8H924.7z"/>
	<path class="st0" d="M175.1,45.4C158.3,38.5,139,35,117.3,35c-21.7,0-41.3,3.4-58.8,10.1C70.5,15,90.1,0,117.3,0
		C144.9,0,164.2,15.1,175.1,45.4z M58.5,45.1C50.8,65,46.9,90.7,46.9,122.1c0,31.9,4.5,58.1,13.4,78.6C41,194.6,26.1,185,15.5,171.8
		C5.2,158.6,0,142,0,122.1c0-17.5,5.1-32.8,15.2-46C25.6,62.7,40,52.4,58.5,45.1z M232.4,122.1c0,19.9-5.1,36.4-15.2,49.6
		c-10.2,13-24.7,22.6-43.6,28.9c8.3-20.9,12.5-47.1,12.5-78.6c0-31.9-3.7-57.5-11-76.8c17.9,7.1,31.9,17.4,42,30.8
		S232.4,104.9,232.4,122.1z M60.3,200.7c15.8,5.3,34.8,7.9,57,7.9c21.1,0,39.9-2.6,56.3-7.9c-5.5,13.8-13,24.5-22.5,32
		c-9.3,7.7-20.6,11.6-33.8,11.6c-13.2,0-24.6-3.9-34.1-11.6C73.8,225.2,66.2,214.5,60.3,200.7z"/>
</g>
</svg>
