<svg class="menu_icon"  xmlns="http://www.w3.org/2000/svg" viewBox="-0.5 -0.5 18 18" id="Product-Growth-Tree-Box--Streamline-Ultimate.svg" height="18" width="18"><desc>Product Growth Tree Box Streamline Icon: https://streamlinehq.com</desc><g><path d="m15.165416666666667 0.6516666666666667 -0.7083333333333334 -0.23375A4.958333333333334 4.958333333333334 0 0 0 8.5 2.8333333333333335 4.958333333333334 4.958333333333334 0 0 0 2.57125 0.41791666666666666l-0.7083333333333334 0.23375a0.3541666666666667 0.3541666666666667 0 0 0 -0.22666666666666668 0.44625000000000004 4.958333333333334 4.958333333333334 0 0 0 2.4366666666666665 2.9112500000000003A4.958333333333334 4.958333333333334 0 0 0 6.375 4.561666666666667a4.901666666666667 4.901666666666667 0 0 0 1.6220833333333335 -0.27625000000000005v1.8487500000000001a0.53125 0.53125 0 0 0 1.0625 0V4.285416666666666a4.8025 4.8025 0 0 0 1.5654166666666667 0.27625000000000005 4.958333333333334 4.958333333333334 0 0 0 2.27375 -0.5525000000000001 4.958333333333334 4.958333333333334 0 0 0 2.4650000000000003 -2.9112500000000003 0.3541666666666667 0.3541666666666667 0 0 0 -0.19833333333333336 -0.44625000000000004Z" fill="currentColor" stroke-width="1"></path><path d="m7.96875 8.8825 -4.9158333333333335 -1.55125 1.6645833333333335 -0.4604166666666667a0.53125 0.53125 0 0 0 0.37541666666666673 -0.6516666666666667 0.5383333333333333 0.5383333333333333 0 0 0 -0.6516666666666667 -0.37541666666666673L1.0270833333333333 6.7787500000000005a0.5595833333333334 0.5595833333333334 0 0 0 -0.3895833333333334 0.51v6.559166666666667a0.5383333333333333 0.5383333333333333 0 0 0 0.34708333333333335 0.5029166666666667l6.984166666666667 2.57125Z" fill="currentColor" stroke-width="1"></path><path d="m9.03125 8.8825 4.9158333333333335 -1.55125 -1.6645833333333335 -0.4604166666666667a0.53125 0.53125 0 0 1 -0.37541666666666673 -0.6516666666666667 0.5383333333333333 0.5383333333333333 0 0 1 0.6516666666666667 -0.37541666666666673l3.414166666666667 0.935a0.5595833333333334 0.5595833333333334 0 0 1 0.3895833333333334 0.51v6.559166666666667a0.5383333333333333 0.5383333333333333 0 0 1 -0.34708333333333335 0.5029166666666667l-6.984166666666667 2.57125Z" fill="currentColor" stroke-width="1"></path></g></svg>