<svg class="menu_icon"  xmlns="http://www.w3.org/2000/svg" viewBox="-0.5 -0.5 18 18" id="Eco-House-Sun--Streamline-Ultimate.svg" height="18" width="18"><desc>Eco House Sun Streamline Icon: https://streamlinehq.com</desc><g><path d="M10.270833333333334 2.125a0.7083333333333334 0.7083333333333334 0 0 0 0.7083333333333334 -0.7083333333333334V0.7083333333333334a0.7083333333333334 0.7083333333333334 0 0 0 -1.4166666666666667 0v0.7083333333333334a0.7083333333333334 0.7083333333333334 0 0 0 0.7083333333333334 0.7083333333333334Z" fill="currentColor" stroke-width="1"></path><path d="M15.030833333333334 1.9691666666666667a0.7083333333333334 0.7083333333333334 0 0 0 -1.0058333333333334 0l-0.49583333333333335 0.5029166666666667a0.7083333333333334 0.7083333333333334 0 1 0 0.99875 0.99875l0.5029166666666667 -0.49583333333333335a0.7083333333333334 0.7083333333333334 0 0 0 0 -1.0058333333333334Z" fill="currentColor" stroke-width="1"></path><path d="M6.013750000000001 3.4708333333333337A0.7083333333333334 0.7083333333333334 0 0 0 7.0125 2.4720833333333334l-0.49583333333333335 -0.5029166666666667A0.7083333333333334 0.7083333333333334 0 0 0 5.510833333333334 2.975Z" fill="currentColor" stroke-width="1"></path><path d="M16.291666666666668 6.020833333333334h-0.7083333333333334a0.7083333333333334 0.7083333333333334 0 0 0 0 1.4166666666666667h0.7083333333333334a0.7083333333333334 0.7083333333333334 0 0 0 0 -1.4166666666666667Z" fill="currentColor" stroke-width="1"></path><path d="M10.270833333333334 2.8333333333333335a3.8675 3.8675 0 0 0 -2.755416666666667 1.1404166666666669A0.7083333333333334 0.7083333333333334 0 0 0 8.5 4.958333333333334a2.479166666666667 2.479166666666667 0 0 1 3.541666666666667 3.541666666666667 0.7083333333333334 0.7083333333333334 0 0 0 0 0.99875 0.7083333333333334 0.7083333333333334 0 0 0 0.99875 0A3.8958333333333335 3.8958333333333335 0 0 0 10.270833333333334 2.8333333333333335Z" fill="currentColor" stroke-width="1"></path><path d="m10.483333333333334 8.216666666666667 -4.958333333333334 -3.647916666666667a0.36125 0.36125 0 0 0 -0.425 0l-4.958333333333334 3.647916666666667a0.36125 0.36125 0 0 0 -0.1416666666666667 0.2833333333333334v8.145833333333334a0.3541666666666667 0.3541666666666667 0 0 0 0.3541666666666667 0.3541666666666667h9.916666666666668a0.3541666666666667 0.3541666666666667 0 0 0 0.3541666666666667 -0.3541666666666667V8.5a0.36125 0.36125 0 0 0 -0.1416666666666667 -0.2833333333333334Zm-4.051666666666667 5.170833333333333a2.287916666666667 2.287916666666667 0 0 1 -2.0612500000000002 0.5808333333333333 1.4804166666666667 1.4804166666666667 0 0 1 -0.48166666666666674 -0.26208333333333333 0.3541666666666667 0.3541666666666667 0 0 1 -0.06375 -0.48874999999999996 4.880416666666667 4.880416666666667 0 0 1 2.0116666666666667 -1.7495833333333335 0.3541666666666667 0.3541666666666667 0 1 0 -0.23375 -0.6658333333333333C4.108333333333333 11.333333333333334 2.7483333333333335 13.316666666666668 2.125 14.7475a0.3541666666666667 0.3541666666666667 0 0 1 -0.7083333333333334 -0.29041666666666666 12.75 12.75 0 0 1 1.2466666666666668 -2.125 0.3541666666666667 0.3541666666666667 0 0 0 0 -0.3966666666666667 1.5300000000000002 1.5300000000000002 0 0 1 -0.24083333333333337 -1.0058333333333334 1.93375 1.93375 0 0 1 1.1475000000000002 -1.4166666666666667 4.873333333333333 4.873333333333333 0 0 1 1.6645833333333335 -0.4320833333333333 4.625416666666667 4.625416666666667 0 0 0 1.8770833333333334 -0.5525000000000001 0.36125 0.36125 0 0 1 0.3045833333333333 0 0.3541666666666667 0.3541666666666667 0 0 1 0.2125 0.22666666666666668 5.16375 5.16375 0 0 1 -1.1970833333333333 4.6325Z" fill="currentColor" stroke-width="1"></path></g></svg>