<svg width="12" height="12" viewBox="0 0 12 12" fill="none" xmlns="http://www.w3.org/2000/svg">
<g clip-path="url(#clip0_580_20881)">
<path opacity="0.5" d="M5.98677 10.7334C5.63755 10.7334 5.33823 10.5838 5.13867 10.3343L0.19975 4.79674C-0.0995789 4.39763 -0.0496908 3.79897 0.349414 3.49965C0.748519 3.20032 1.29729 3.20032 1.59662 3.59942L5.88699 8.48846C5.93688 8.53835 5.98677 8.53835 6.08655 8.48846L10.3769 3.59942C10.7261 3.20032 11.2749 3.15043 11.674 3.49965C12.0731 3.84886 12.123 4.39763 11.7738 4.79674L11.7239 4.84662L6.83487 10.3842C6.63532 10.5838 6.2861 10.7334 5.98677 10.7334Z" fill="#8C8C8C"/>
</g>
<defs>
<clipPath id="clip0_580_20881">
<rect width="12" height="12" fill="white" transform="translate(0 12) rotate(-90)"/>
</clipPath>
</defs>
</svg>
