<svg width="18" height="18" viewBox="0 0 18 18" fill="none" xmlns="http://www.w3.org/2000/svg">
<path d="M1.93005 5.6134L9.00005 1.125L16.0701 5.6134M1.93005 15.1075V16.168C1.93005 16.3555 2.00454 16.5353 2.13713 16.6679C2.26972 16.8005 2.44955 16.875 2.63705 16.875H15.3631C15.5506 16.875 15.7304 16.8005 15.863 16.6679C15.9956 16.5353 16.0701 16.3555 16.0701 16.168V15.1075M5.15005 6.0866H7.05755C7.05755 6.0866 7.75755 6.0866 7.75755 6.7866V8.6941C7.75755 8.6941 7.75755 9.3941 7.05755 9.3941H5.15005C5.15005 9.3941 4.45005 9.3941 4.45005 8.6941V6.7866C4.45005 6.7866 4.45005 6.0866 5.15005 6.0866ZM10.9426 6.0866H12.8501C12.8501 6.0866 13.5501 6.0866 13.5501 6.7866V8.6941C13.5501 8.6941 13.5501 9.3941 12.8501 9.3941H10.9426C10.9426 9.3941 10.2426 9.3941 10.2426 8.6941V6.7866C10.2426 6.7866 10.2426 6.0866 10.9426 6.0866ZM5.15005 11.5291H7.05755C7.05755 11.5291 7.75755 11.5291 7.75755 12.2291V14.1366C7.75755 14.1366 7.75755 14.8366 7.05755 14.8366H5.15005C5.15005 14.8366 4.45005 14.8366 4.45005 14.1366V12.2291C4.45005 12.2291 4.45005 11.5291 5.15005 11.5291ZM10.9426 11.5291H12.8501C12.8501 11.5291 13.5501 11.5291 13.5501 12.2291V14.1366C13.5501 14.1366 13.5501 14.8366 12.8501 14.8366H10.9426C10.9426 14.8366 10.2426 14.8366 10.2426 14.1366V12.2291C10.2426 12.2291 10.2426 11.5291 10.9426 11.5291Z" stroke="currentColor" stroke-width="1.33" stroke-linecap="round" stroke-linejoin="round"/>
</svg>
