<svg class="menu_icon" width="18" height="18" viewBox="0 0 18 18" fill="none" xmlns="http://www.w3.org/2000/svg">
<path d="M4.4377 2.5H13.25L16.7486 7.05H6.6M4.4377 2.5L1 7.05M4.4377 2.5L7.8754 7.05M1 7.05H7.8754M1 7.05V13.7H7.475M7.8754 7.05L7.8754 8.275M1 10.2H7.125M4.4377 7.4V13.7M8.7112 2.5L12.1489 7.05M9.8743 12.3478C11.5751 12.0059 12.9445 10.6198 13.287 8.875C13.6294 10.6198 14.9985 12.0059 16.6993 12.3478M16.6993 12.3498C14.9985 12.6917 13.6291 14.0777 13.2866 15.8226C12.9442 14.0777 11.5751 12.6917 9.8743 12.3498" stroke="currentColor" stroke-width="1.33" stroke-linecap="round" stroke-linejoin="round"/>
</svg>
