<svg class="menu_icon" width="18" height="18" viewBox="0 0 18 18" fill="none" xmlns="http://www.w3.org/2000/svg">
<path d="M3.18537 5.67478V12.687H6.46341M3.18537 10.3496L5.14418 8.25448C5.24566 8.14588 5.36614 8.05973 5.49876 8.00095C5.63138 7.94217 5.77352 7.91192 5.91707 7.91192C6.06062 7.91192 6.20277 7.94217 6.33539 8.00095C6.468 8.05973 6.58849 8.14588 6.68996 8.25448L7.1132 8.70716C7.23062 8.83261 7.37321 8.9278 7.53016 8.98551C7.68711 9.04322 7.85428 9.06193 8.019 9.04023C8.18372 9.01853 8.34166 8.95698 8.48082 8.86025C8.61998 8.76353 8.73671 8.63417 8.82215 8.48199L9.08294 8.01451M7.00976 16.193H2.09268C1.80289 16.193 1.52496 16.0699 1.32004 15.8507C1.11512 15.6316 1 15.3343 1 15.0243V2.1687C1 1.85874 1.11512 1.56148 1.32004 1.3423C1.52496 1.12313 1.80289 1 2.09268 1H9.83543C10.125 1.00007 10.4028 1.12309 10.6076 1.34204L12.6997 3.5797C12.9044 3.79879 13.0195 4.09584 13.0195 4.40558V8.01217M13.3577 15.5C13.3571 14.989 13.4509 14.4828 13.6336 14.0104C13.8164 13.5381 14.0845 13.1087 14.4227 12.747C14.761 12.3852 15.1627 12.0981 15.6049 11.9021C16.0471 11.706 16.5211 11.6048 17 11.6043C17.0005 12.1154 16.9067 12.6215 16.724 13.0939C16.5412 13.5662 16.2731 13.9955 15.9348 14.3572C15.5966 14.719 15.195 15.0061 14.7528 15.2022C14.3106 15.3982 13.8366 15.4994 13.3577 15.5ZM13.3577 15.5C13.3588 14.468 12.9756 13.4778 12.2926 12.7473C11.6096 12.0167 10.6825 11.6056 9.71545 11.6043C9.71487 12.1154 9.80862 12.6215 9.99136 13.0938C10.1741 13.5662 10.4422 13.9955 10.7804 14.3572C11.1187 14.719 11.5204 15.0061 11.9626 15.2022C12.4048 15.3982 12.8789 15.4994 13.3577 15.5ZM13.3577 17V14.9435" stroke="currentColor" stroke-width="1.33" stroke-linecap="round" stroke-linejoin="round"/>
</svg>
