<svg width="12" height="12" viewBox="0 0 12 12" fill="none" xmlns="http://www.w3.org/2000/svg">
<g clip-path="url(#clip0_580_20879)">
<path opacity="0.5" d="M5.98677 1.26658C5.63755 1.26658 5.33823 1.41624 5.13867 1.66568L0.19975 7.20326C-0.0995789 7.60237 -0.0496908 8.20103 0.349414 8.50035C0.748519 8.79968 1.29729 8.79968 1.59662 8.40058L5.88699 3.51154C5.93688 3.46165 5.98677 3.46165 6.08655 3.51154L10.3769 8.40058C10.7261 8.79968 11.2749 8.84957 11.674 8.50035C12.0731 8.15114 12.123 7.60237 11.7738 7.20326L11.7239 7.15338L6.83487 1.61579C6.63532 1.41624 6.2861 1.26658 5.98677 1.26658Z" fill="#8C8C8C"/>
</g>
<defs>
<clipPath id="clip0_580_20879">
<rect width="12" height="12" fill="white" transform="matrix(-4.37114e-08 1 1 4.37114e-08 0 0)"/>
</clipPath>
</defs>
</svg>
