<svg class="menu_icon" width="18" height="18" viewBox="0 0 18 18" fill="none" xmlns="http://www.w3.org/2000/svg">
<path d="M14.7778 9.80019H16.35C16.4419 9.80019 16.5329 9.78209 16.6178 9.74691C16.7028 9.71173 16.7799 9.66017 16.8449 9.59517C16.9099 9.53017 16.9615 9.453 16.9967 9.36807C17.0318 9.28315 17.05 9.19212 17.05 9.10019V8.4002C17.05 8.21454 16.9762 8.0365 16.8449 7.90522C16.7136 7.77395 16.5356 7.7002 16.35 7.7002H14.7771C14.6343 6.99067 14.399 6.30298 14.0771 5.6548L15.1894 4.5432C15.3206 4.41193 15.3943 4.23391 15.3943 4.0483C15.3943 3.86268 15.3206 3.68466 15.1894 3.5534L14.1968 2.5636C14.0655 2.43237 13.8875 2.35864 13.7019 2.35864C13.5162 2.35864 13.3382 2.43237 13.207 2.5636L12.094 3.6759C11.4463 3.35384 10.7591 3.11849 10.05 2.9759V1.4002C10.05 1.21454 9.9762 1.0365 9.84493 0.905221C9.71365 0.773945 9.5356 0.700195 9.34995 0.700195H8.64995C8.4643 0.700195 8.28625 0.773945 8.15498 0.905221C8.0237 1.0365 7.94995 1.21454 7.94995 1.4002V2.9745C7.24062 3.11709 6.55315 3.35245 5.90525 3.6745L4.79225 2.5636C4.66098 2.43237 4.48297 2.35864 4.29735 2.35864C4.11174 2.35864 3.93372 2.43237 3.80245 2.5636L2.81195 3.5541C2.68072 3.68536 2.607 3.86338 2.607 4.049C2.607 4.23461 2.68072 4.41263 2.81195 4.5439L3.92495 5.6562C3.60323 6.30423 3.36789 6.99166 3.22495 7.7009H1.64995C1.4643 7.7009 1.28625 7.77465 1.15498 7.90592C1.0237 8.0372 0.949951 8.21524 0.949951 8.4009V9.10089C0.949951 9.28655 1.0237 9.46459 1.15498 9.59587C1.28625 9.72715 1.4643 9.80089 1.64995 9.80089H3.22215C3.36509 10.5101 3.60043 11.1976 3.92215 11.8456L2.80915 12.9586C2.67792 13.0899 2.6042 13.2679 2.6042 13.4535C2.6042 13.6391 2.67792 13.8171 2.80915 13.9484L3.80245 14.9382C3.93372 15.0694 4.11174 15.1431 4.29735 15.1431C4.48297 15.1431 4.66098 15.0694 4.79225 14.9382L5.90455 13.8252C6.55274 14.1471 7.24043 14.3825 7.94995 14.5252V16.1002C7.94995 16.2858 8.0237 16.4639 8.15498 16.5952C8.28625 16.7264 8.4643 16.8002 8.64995 16.8002H9.34995C9.5356 16.8002 9.71365 16.7264 9.84493 16.5952C9.9762 16.4639 10.05 16.2858 10.05 16.1002V14.5287C10.759 14.3859 11.4462 14.1505 12.094 13.8287L13.2077 14.941C13.3389 15.0722 13.5169 15.1459 13.7026 15.1459C13.8882 15.1459 14.0662 15.0722 14.1975 14.941L15.1873 13.9512C15.3185 13.8199 15.3922 13.6419 15.3922 13.4563C15.3922 13.2707 15.3185 13.0927 15.1873 12.9614L14.075 11.8484C14.3979 11.1994 14.6342 10.5108 14.7778 9.80019Z" stroke="#8C8C8C" stroke-width="1.33" stroke-linecap="round" stroke-linejoin="round"/>
<path d="M5.84995 8.75089C5.84995 9.16456 5.93143 9.57417 6.08973 9.95635C6.24803 10.3385 6.48006 10.6858 6.77256 10.9783C7.06507 11.2708 7.41232 11.5028 7.7945 11.6611C8.17667 11.8194 8.58629 11.9009 8.99995 11.9009C9.41361 11.9009 9.82323 11.8194 10.2054 11.6611C10.5876 11.5028 10.9348 11.2708 11.2273 10.9783C11.5198 10.6858 11.7519 10.3385 11.9102 9.95635C12.0685 9.57417 12.15 9.16456 12.15 8.75089C12.15 8.33723 12.0685 7.92762 11.9102 7.54544C11.7519 7.16327 11.5198 6.81601 11.2273 6.52351C10.9348 6.231 10.5876 5.99898 10.2054 5.84067C9.82323 5.68237 9.41361 5.6009 8.99995 5.6009C8.58629 5.6009 8.17667 5.68237 7.7945 5.84067C7.41232 5.99898 7.06507 6.231 6.77256 6.52351C6.48006 6.81601 6.24803 7.16327 6.08973 7.54544C5.93143 7.92762 5.84995 8.33723 5.84995 8.75089Z" stroke="currentColor" stroke-width="1.33" stroke-linecap="round" stroke-linejoin="round"/>
</svg>
