<svg class="menu_icon" width="18" height="18" viewBox="0 0 18 18" fill="none" xmlns="http://www.w3.org/2000/svg">
<path d="M0.771484 8.75329V15.4848C0.771484 15.7595 0.88527 16.0229 1.08781 16.2171C1.29035 16.4113 1.56505 16.5204 1.85148 16.5204H15.8915C16.1779 16.5204 16.4526 16.4113 16.6552 16.2171C16.8577 16.0229 16.9715 15.7595 16.9715 15.4848V8.75329M0.771484 8.75329L8.0838 1.31342C8.18481 1.21017 8.30682 1.12787 8.4423 1.07161C8.57778 1.01535 8.72385 0.986328 8.87148 0.986328M0.771484 8.75329H16.9715M16.9715 8.75329L9.65916 1.31342C9.55816 1.21017 9.43615 1.12787 9.30067 1.07161C9.16519 1.01535 9.01912 0.986328 8.87148 0.986328M8.87148 0.986328L8.87148 8.75329M5.63148 16.5204V8.75329M5.63148 8.75329H12.1115M5.63148 8.75329V3.80856M12.1115 8.75329V16.5204M12.1115 8.75329L12.1115 3.80856M12.1115 12.3779H16.9715M0.771484 12.3779H5.63148" stroke="currentColor" stroke-width="1.33" stroke-linecap="round" stroke-linejoin="round"/>
</svg>
