<svg width="13" height="13" viewBox="0 0 13 13" fill="none" xmlns="http://www.w3.org/2000/svg">
<path d="M7.625 8.75H7.25C7.0511 8.75 6.8603 8.671 6.71965 8.53035C6.579 8.3897 6.5 8.1989 6.5 8V6.125C6.5 6.02555 6.4605 5.93015 6.39015 5.85985C6.31985 5.7895 6.22445 5.75 6.125 5.75H5.75" stroke="#8C8C8C" stroke-width="0.9" stroke-linecap="round" stroke-linejoin="round"/>
<path d="M6.3125 4.25C6.20895 4.25 6.125 4.16606 6.125 4.0625C6.125 3.95894 6.20895 3.875 6.3125 3.875" stroke="#8C8C8C" stroke-width="0.9"/>
<path d="M6.3125 4.25C6.41605 4.25 6.5 4.16606 6.5 4.0625C6.5 3.95894 6.41605 3.875 6.3125 3.875" stroke="#8C8C8C" stroke-width="0.9"/>
<path d="M6.5 12.125C9.6066 12.125 12.125 9.6066 12.125 6.5C12.125 3.3934 9.6066 0.875 6.5 0.875C3.3934 0.875 0.875 3.3934 0.875 6.5C0.875 9.6066 3.3934 12.125 6.5 12.125Z" stroke="#8C8C8C" stroke-width="0.9" stroke-linecap="round" stroke-linejoin="round"/>
</svg>
